# xmcd
#
# Track frame offsets:
#	150
#	13463
#	32522
#
# Disc length: 705 seconds
#
# Revision: 0
# Processed by: cddbd v1.5.2PL0 Copyright (c) Steve Scherf et al.
# Submitted via: audiograbber 1.83.01
#
DISCID=1d02bf03
DTITLE=Fahrenheit 212 - Herehara
DYEAR=1900
DGENRE=Deutsch
TTITLE0=Rapa Nui
TTITLE1=Sehnsuchtrack  2
TTITLE2=ka Hoki Mairack  3
EXTD=
EXTT0=
EXTT1=
EXTT2=
PLAYORDER=
